<?xml version="1.0" encoding="UTF-8"?>
<svg version="1.1" viewBox="0 0 1600 1600" width="1280" height="1280" xmlns="http://www.w3.org/2000/svg">
<path transform="translate(1191 267)" d="m0 0c1.28 0.0146 1.28 0.0146 2.58 0.0295 54.6 0.635 109 1.7 164 5.16 1.3 0.0806 1.3 0.0806 2.63 0.163 9.53 0.608 19 1.58 28.5 2.79 0.933 0.118 1.87 0.237 2.83 0.359 31.2 4.16 57.1 15.6 80.2 37.2 0.889 0.808 1.78 1.62 2.7 2.45 7.77 7.36 14 15.9 20.3 24.6 0.649 0.874 0.649 0.874 1.31 1.77 54.1 73.4 61.1 177 61 270-0.0075 2.98-0.0115 5.95-0.0147 8.93-0.0654 49.9-1.09 99.7-2.16 150-0.197 9.26-0.39 18.5-0.579 27.8-0.0137 0.671-0.0274 1.34-0.0416 2.03-0.0697 3.41-0.139 6.82-0.209 10.2-0.487 23.8-0.983 47.7-1.48 71.5-0.483 23-0.962 46-1.43 68.9-0.022 1.07-0.022 1.07-0.0444 2.16-0.133 6.45-0.265 12.9-0.398 19.3-0.926 45-1.86 90.1-2.8 135-0.0703 3.36-0.141 6.72-0.211 10.1-0.272 13-0.548 26.1-0.83 39.1-0.0642 2.98-0.128 5.96-0.191 8.94-0.105 4.94-0.213 9.88-0.323 14.8-0.0404 1.83-0.08 3.66-0.119 5.49-0.737 34.8-2.09 69.7-28.4 95.6-13.8 12.4-30.4 19.8-48 25l-3.57 1.06c-9.41 2.48-18.9 3.79-28.6 4.97-0.722 0.0879-1.44 0.176-2.19 0.267-14.8 1.78-29.6 2.63-44.5 3.13-3.02 0.104-6.04 0.218-9.06 0.331-11 0.41-21.9 0.777-32.9 1.14-3.39 0.111-6.79 0.223-10.2 0.335-39.4 1.3-78.8 2.5-118 3.66-3.73 0.11-7.47 0.22-11.2 0.33-93.1 2.74-186 4.88-341 7.36-3.13 0.0478-6.26 0.0958-9.39 0.144-13.1 0.2-26.1 0.396-39.2 0.589-2.67 0.0397-5.34 0.0798-8.02 0.12-12.5 0.187-24.9 0.356-37.4 0.518-3.56 0.0467-7.11 0.0946-10.7 0.143-55 0.744-110 1.06-165 1.04-7.32-0.00234-14.6-0.00255-22-0.00148-1.6 2.3e-4 -1.6 2.3e-4 -3.23 4.64e-4 -2.17 3.2e-4 -4.34 6.44e-4 -6.51 9.73e-4 -20 0.00281-40.1-3.56e-4 -60.1-0.0058-17-0.00448-34-0.00367-51.1 9.19e-4 -20 0.0054-40.1 0.00743-60.1 0.00439-2.15-3.18e-4 -4.3-6.33e-4 -6.46-9.43e-4 -1.06-1.54e-4 -2.11-3.09e-4 -3.2-4.68e-4 -7.29-8.47e-4 -14.6 5.77e-4 -21.9 0.00295-74.8 0.0221-74.8 0.0221-111-0.594-1.21-0.0202-2.43-0.0404-3.68-0.0613-51.9-0.896-108-3.79-147-42.5-3.25-3.47-6.14-7.21-9-11-0.565-0.665-1.13-1.33-1.71-2.02-44.2-52.7-48.1-136-49.9-202-0.0206-0.711-0.0413-1.42-0.0626-2.15-0.798-28.5-0.192-56.9 0.438-85.4 0.0312-1.43 0.0312-1.43 0.0629-2.89 1.15-52.9 3.09-106 5.03-159 0.283-7.72 0.566-15.4 0.848-23.2 0.123-3.38 0.247-6.75 0.37-10.1 0.0312-0.851 0.0623-1.7 0.0944-2.58 0.192-5.24 0.384-10.5 0.576-15.7 0.825-22.5 1.64-45 2.46-67.5 5.62-156 5.62-156 8.69-225 0.121-2.76 0.242-5.52 0.362-8.28 1.72-39.4 3.54-78.7 5.94-118 0.064-1.05 0.064-1.05 0.129-2.11 0.279-4.56 0.564-9.12 0.851-13.7 0.0696-1.11 0.139-2.22 0.211-3.36 0.198-3.08 0.409-6.15 0.621-9.23 0.0672-1.1 0.134-2.2 0.204-3.34 0.0737-1.08 0.147-2.15 0.223-3.26 0.0621-0.965 0.124-1.93 0.188-2.93 0.385-2.48 0.385-2.48 2.38-5.48 0.993 5.03 1.21 9.9 1.31 15 0.0205 0.915 0.041 1.83 0.0621 2.77 0.0665 3.12 0.124 6.23 0.181 9.35 0.0209 1.11 0.0419 2.22 0.0634 3.37 0.66 36.1 0.536 72.3 0.509 108-0.00272 3.94-0.00453 7.88-0.00633 11.8-0.04 86.6-0.555 173-1.8 260-0.295 20.4-0.588 40.9-0.879 61.3-0.0257 1.81-0.0257 1.81-0.052 3.66-0.913 64.3-1.69 129-1.7 193-4.46e-4 3.98-0.00396 7.95-0.00853 11.9-4.03 141-4.03 141 49.3 268 1.01 1.22 1.01 1.22 2.05 2.47 3.05 3.79 3.05 3.79 6.95 6.53v2l1.64 0.738c2.93 1.57 5.49 3.49 8.18 5.45 30.9 21.8 72.7 21.9 109 21.9 1.17-9.72e-4 2.34-0.00194 3.55-0.00294 18.9-0.038 37.8-0.256 56.7-0.451 3.34-0.0344 6.69-0.0681 10-0.102 27.8-0.28 55.7-0.615 83.5-1.06 27.9-0.438 55.9-0.671 83.8-0.907 48.6-0.406 48.6-0.406 97.1-1.03 1.84-0.0269 1.84-0.0269 3.71-0.0544 12.5-0.187 25-0.448 37.6-0.799 16.2-0.454 32.4-0.783 48.6-1.01 93.9-1.31 188-3.81 660-19.2 1.97-0.0791 3.95-0.158 5.92-0.237 35.1-1.4 35.1-1.4 70.2-3.07 1.53-0.079 3.05-0.156 4.58-0.232 24.9-1.25 57.1-3.88 75.3-23.4 12.7-15.9 11.5-37 11.8-56.3 0.0375-1.89 0.0753-3.78 0.113-5.66 0.103-5.16 0.201-10.3 0.297-15.5 0.0629-3.34 0.127-6.67 0.192-10 0.709-36.5 1.33-72.9 1.92-109 0.603-37.2 1.25-74.4 1.93-112 0.0666-3.68 0.133-7.37 0.2-11 0.403-22.3 0.807-44.7 1.22-67 0.258-14.1 0.514-28.2 0.768-42.3 0.0204-1.13 0.0408-2.26 0.0619-3.42 0.594-32.9 1.13-65.8 1.53-98.7 0.184-14.8 0.435-29.6 0.803-44.4 0.497-20.6 0.641-41.2 0.684-61.7 0.00612-2.3 0.016-4.59 0.0271-6.89 0.36-79.5-8.23-161-50.2-231h-3c-1.53 1.92-1.53 1.92-2.89 4.46-0.545 0.947-1.09 1.89-1.65 2.87-0.563 1-1.13 2.01-1.71 3.04-4.25 7.49-8.73 14.6-13.8 21.6-1.2 1.79-2.39 3.58-3.56 5.38-13.8 20.7-28.5 40.8-43.6 60.6-3.42 4.47-6.81 8.97-10.2 13.5-5.01 6.7-10.1 13.3-15.3 19.9-1.34 1.69-2.66 3.39-3.99 5.09-9.75 12.5-19.9 24.7-30.1 36.9-2.93 3.53-5.84 7.08-8.74 10.6-22.2 27.1-22.2 27.1-33.2 39.3-3.03 3.33-5.92 6.75-8.75 10.2-3.87 4.78-7.95 9.31-12.1 13.8-2.33 2.6-4.53 5.26-6.7 7.98-4.88 6.05-10.2 11.7-15.5 17.3-2.87 3.05-5.65 6.17-8.38 9.35-2.56 2.91-5.2 5.74-7.84 8.59-3.21 3.46-6.41 6.93-9.5 10.5-3.56 4.11-7.25 8.09-10.9 12.1-3.16 3.41-6.28 6.84-9.37 10.3-3.07 3.43-6.23 6.7-9.51 9.92-2.4 2.45-4.6 5.05-6.84 7.65-2.62 2.93-5.42 5.66-8.24 8.39-1.69 1.59-1.69 1.59-2.6 3.66h-2c-0.388 0.878-0.388 0.878-0.784 1.77-1.31 2.39-2.71 3.94-4.66 5.83-0.684 0.673-1.37 1.35-2.07 2.04-1.07 1.04-1.07 1.04-2.17 2.1-1.4 1.37-2.8 2.74-4.2 4.11-0.621 0.603-1.24 1.21-1.88 1.83-1.9 1.97-3.67 3.97-5.45 6.04-3.91 4.5-8.15 8.6-12.5 12.7-1.65 1.6-3.3 3.21-4.95 4.82-2.57 2.5-5.14 4.99-7.73 7.46-2.52 2.41-5.02 4.85-7.51 7.29-0.772 0.722-1.54 1.44-2.34 2.19-5.75 5.72-7.4 10.9-8.8 18.8-0.438 1.79-0.889 3.57-1.36 5.35-0.224 0.861-0.449 1.72-0.68 2.61-11 41.4-35.1 76.4-61 110-0.46 0.6-0.919 1.2-1.39 1.82-25.8 33.6-25.8 33.6-36.6 38.2-3.25-0.0624-5.11-0.465-7.88-2.12-1.79-2.98-1.66-5.56-1.12-8.88 2.31-8.3 5.66-16 9.44-23.8 0.522-1.07 1.04-2.15 1.58-3.26 7.64-15.6 16.1-30.7 24.7-45.8 23.5-41.4 42.4-84.3 30.6-133-7.07-24.9-21.7-47.5-44.5-60.7-20-11.1-44-14.2-66.2-8.89-24.1 6.92-44.3 18.8-62.6 36-1.29 1.09-2.58 2.17-3.88 3.25-9.89 8.74-17.3 18.2-24.3 29.4-9.53 15-21 28.4-38.6 33.7-19.1 4-35.9-3.93-51.8-13.6-5.46-3.6-10.5-7.66-15.7-11.7-12.4-9.86-25.1-18.8-38.7-27-0.648-0.392-1.3-0.784-1.96-1.19-20.3-12.1-44.8-18.6-68.4-14.1-15.4 4.1-27.5 13.7-35.7 27.3-15.3 26.7-16.9 56.1-9.23 85.6 6.77 24.7 18.1 48.1 32.2 69.4 0.435 0.659 0.87 1.32 1.32 2 10.3 15.4 21.2 30.5 33.4 44.5 1.37 1.58 2.72 3.19 4.06 4.79 5.73 6.86 11.6 13.5 17.7 20.1 1.13 1.24 2.25 2.49 3.37 3.76 6.34 7.17 13 13.9 19.8 20.7 1.94 1.93 3.87 3.87 5.8 5.8 5.48 5.48 10.9 10.9 16.8 16 3.12 2.67 6.06 5.53 9.04 8.36 5.12 4.81 10.3 9.41 15.8 13.8 3.46 2.82 6.82 5.76 10.2 8.71 6.5 5.68 13.2 11.1 20 16.3 1.59 1.23 3.18 2.46 4.76 3.7 8.73 6.78 17.6 13.4 26.5 19.9 1.54 1.12 3.09 2.26 4.62 3.39 10.8 8.53 10.8 8.53 23.7 11.3 11.8-1.92 21.9-10.9 31-18 0.557-0.43 1.11-0.859 1.69-1.3 12-9.24 23.5-18.9 34.6-29.2 1.95-1.78 3.9-3.47 5.94-5.14 3.02-2.54 5.32-5.31 7.81-8.37 1.65-1.68 3.32-3.35 5-5 8.31-8.2 8.31-8.2 16.1-16.9 1.9-2.18 3.85-4.3 5.81-6.42 4.81-5.18 9.36-10.5 13.8-16 3.17-3.84 6.53-7.49 9.9-11.2 2.07-2.26 4.1-4.56 6.1-6.88 2.94-3.39 6.04-6.55 9.25-9.69 0.66 0.33 1.32 0.66 2 1-13 31.1-34.2 60.3-56.6 85.4-0.97 1.1-1.93 2.21-2.87 3.33-5.27 6.18-11 11.9-16.7 17.6-1.74 1.73-3.47 3.47-5.2 5.21-5.17 5.17-10.3 10.3-15.9 15-2.57 2.2-5.02 4.51-7.5 6.81-16.3 15-29.9 25.7-52.6 25-16.3-0.936-31.5-13.3-44.6-22.3-0.863-0.594-1.73-1.19-2.62-1.8-18.8-13-37.3-26.2-55.4-40.2-0.624-0.482-1.25-0.964-1.89-1.46-7.5-5.8-14.8-11.8-22-17.9-2.77-2.36-5.6-4.64-8.45-6.92-6.44-5.24-12.4-11-18.5-16.7-2.08-1.94-4.19-3.86-6.3-5.77-6.68-6.07-13.1-12.4-19.5-18.7-1.7-1.7-3.4-3.4-5.1-5.09-5.64-5.63-11.1-11.3-16.3-17.4-1.04-1.19-2.09-2.38-3.14-3.57-22.9-26.2-42.8-54.5-58.9-85.4-0.603-1.13-0.603-1.13-1.22-2.29-14.2-26.8-23.9-59-24.6-89.4 0.0141-3.35 0.0141-3.35-1.14-6.35-1.32-0.697-2.66-1.36-4-2-2.14-1.59-4.23-3.21-6.31-4.88l-1.85-1.47c-1.95-1.55-3.89-3.1-5.84-4.66-0.624-0.499-1.25-0.998-1.89-1.51-2.5-2-5-4-7.49-6-4.27-3.42-8.56-6.81-12.9-10.2-8.79-6.89-17.4-14-25.9-21.2-3.42-2.9-6.86-5.76-10.3-8.59-4.6-3.75-9.14-7.57-13.7-11.4-3.47-2.95-6.99-5.85-10.5-8.72-4.39-3.57-8.58-7.3-12.8-11.1-5.27-4.69-10.8-9.15-16.4-13.4-1.08-0.922-1.08-0.922-2.18-1.86v-2c-0.562-0.244-1.12-0.487-1.7-0.738-2.74-1.5-4.75-3.33-7.05-5.45-3.01-2.76-6.03-5.51-9.12-8.19-3.97-3.45-7.83-7.02-11.7-10.6-2.78-2.55-5.57-5.08-8.42-7.55-7.66-6.65-15-13.6-22.5-20.5-2.17-2-4.33-4-6.5-6-0.806-0.744-0.806-0.744-1.63-1.5-7.76-7.19-7.76-7.19-15.8-14.1-2.3-2.04-4.44-4.23-6.6-6.41-2.93-2.96-5.87-5.92-8.81-8.88-0.769-0.777-1.54-1.55-2.33-2.36-0.764-0.767-1.53-1.53-2.31-2.32-0.68-0.686-1.36-1.37-2.06-2.08-2.03-1.93-4.08-3.76-6.2-5.59-3.89-3.4-7.58-6.94-11.2-10.6-0.643-0.642-1.29-1.28-1.95-1.94-2.1-2.1-4.2-4.2-6.29-6.3-1.47-1.47-2.95-2.95-4.42-4.42-3.08-3.08-6.16-6.16-9.23-9.24-3.93-3.93-7.86-7.86-11.8-11.8-3.04-3.04-6.08-6.08-9.12-9.12-1.45-1.45-2.9-2.9-4.35-4.34-2.03-2.03-4.06-4.06-6.09-6.09-0.589-0.587-1.18-1.17-1.78-1.78-3.63-3.64-7.05-7.41-10.4-11.3-2.73-3.1-5.68-5.97-8.63-8.85-4.26-4.17-8.3-8.43-12.2-12.9-3.13-3.57-6.41-6.99-9.68-10.4-5.09-5.38-10.1-10.8-15.1-16.3-2.33-2.61-4.7-5.18-7.07-7.75-3.23-3.54-6.32-7.14-9.31-10.9-3.56-4.41-7.31-8.57-11.2-12.7-4.61-4.9-8.98-9.9-13.2-15.1-3.21-3.95-6.55-7.8-9.89-11.6-3.35-3.87-6.52-7.86-9.65-11.9-1.7-2.19-3.41-4.37-5.13-6.55-5.82-7.39-11.5-14.8-16.9-22.6-0.453-0.651-0.907-1.3-1.37-1.97-2.24-3.29-4.08-6.44-5.38-10.2 3.6 1.26 6.01 2.63 8.75 5.27 0.692 0.661 1.38 1.32 2.1 2 0.71 0.692 1.42 1.38 2.15 2.1 1.39 1.34 2.79 2.68 4.19 4.02 0.767 0.739 1.53 1.48 2.32 2.24 2.63 2.5 5.32 4.92 8.01 7.36 11.1 10.2 21.6 21 32.2 31.7 3.84 3.86 7.68 7.72 11.5 11.6 1.53 1.53 3.05 3.07 4.58 4.61 0.919 0.922 1.84 1.84 2.78 2.79 0.809 0.814 1.62 1.63 2.45 2.47 1.84 1.92 1.84 1.92 3.98 2.86v2c0.598 0.273 1.2 0.545 1.81 0.826 2.13 1.14 3.49 2.24 5.18 3.95 0.554 0.558 1.11 1.12 1.68 1.69 0.589 0.602 1.18 1.2 1.78 1.82 0.619 0.624 1.24 1.25 1.88 1.89 1.98 2 3.95 4 5.92 6 2.59 2.62 5.17 5.24 7.77 7.86 0.621 0.627 1.24 1.25 1.88 1.9 3.68 3.69 7.43 7.22 11.4 10.6 3.06 2.66 5.86 5.58 8.7 8.48 4.27 4.32 8.57 8.5 13.2 12.4 2.74 2.4 5.24 5.02 7.8 7.61 1.9 1.87 3.85 3.61 5.87 5.34 3.19 2.74 6.17 5.63 9.12 8.62 3.42 3.46 6.91 6.73 10.6 9.89 3.37 2.96 6.62 6.04 9.89 9.11 4.48 4.2 8.97 8.36 13.6 12.4 5.04 4.37 9.97 8.87 14.9 13.4 0.498 0.457 0.997 0.913 1.51 1.38 1.41 1.29 2.82 2.59 4.23 3.89 2.08 1.99 2.08 1.99 4.25 2.97v2c0.556 0.236 1.11 0.472 1.68 0.715 2.88 1.6 4.98 3.59 7.38 5.85 3.67 3.41 7.4 6.68 11.3 9.81 4.2 3.39 8.19 6.94 12.1 10.6 4.71 4.4 9.54 8.56 14.6 12.6 3.5 2.86 6.91 5.81 10.3 8.78 6.3 5.48 12.6 10.9 19 16.3 1.6 1.36 3.2 2.72 4.8 4.08 6.08 5.19 12.2 10.2 18.6 15.1 3.99 3.12 7.88 6.33 11.7 9.62 5.01 4.29 10.1 8.4 15.3 12.4 3.72 2.9 7.36 5.88 11 8.93 5.41 4.55 11 8.83 16.6 13.1 4.87 3.7 9.64 7.51 14.4 11.4 7.57 6.22 15.4 12.1 23.2 17.9 4.54 3.38 9.03 6.81 13.5 10.3 6.21 4.76 12.5 9.47 18.8 14.1 0.807 0.601 1.61 1.2 2.45 1.82 0.757 0.558 1.51 1.12 2.29 1.69 0.667 0.493 1.33 0.987 2.02 1.49 1.91 1.3 3.84 2.32 5.93 3.31 0.352-0.788 0.704-1.58 1.07-2.39 5.81-12.8 12.1-24.6 20.9-35.6 0.59-0.768 1.18-1.54 1.79-2.33 16.7-20.4 42.7-30.8 68.4-33.4 19.1-1.4 37.9 1 55.8 7.72 0.669 0.247 1.34 0.495 2.03 0.75 18.7 7.03 35.6 16.8 52 28.3 0.633 0.438 1.27 0.877 1.92 1.33 6.58 4.57 13 9.33 19.3 14.3 1.73 1.36 3.46 2.73 5.19 4.09 1.54 1.21 3.07 2.43 4.6 3.65 5.77 4.43 10.9 7.14 18 8.63 2.87-4.2 5.67-8.43 8.31-12.8 8.27-13.6 18.1-25.1 29.1-36.6 1.34-1.41 2.67-2.82 4-4.24 29.9-31.2 78-51.7 121-52.7 33.8-0.356 63.5 11.1 87.9 34.6 20.1 19.9 31.4 43.3 40.7 69.7 6.05-5.01 11.6-10.4 17.1-16 0.88-0.877 1.76-1.75 2.67-2.66 5.3-5.3 5.3-5.3 10.2-11 0.663-0.784 1.33-1.57 2.01-2.38h2c0.348-0.838 0.348-0.838 0.702-1.69 1.64-2.91 3.67-4.89 6.06-7.23 0.469-0.464 0.938-0.927 1.42-1.41 1.5-1.48 3-2.95 4.5-4.42 5.82-5.71 11.6-11.4 16.9-17.6 1.71-1.98 3.53-3.82 5.41-5.64 2.56-2.52 4.98-5.08 7.31-7.81 3.72-4.33 7.76-8.3 11.8-12.3 2.82-2.81 5.4-5.81 8.01-8.82 3.63-4.13 7.45-8.09 11.2-12.1 3.73-3.95 7.35-7.97 10.9-12.1 2.62-2.98 5.35-5.85 8.07-8.74 4.76-5.07 9.22-10.3 13.6-15.7 2.55-3.05 5.31-5.8 8.16-8.57 2.48-2.47 4.76-5.1 7.05-7.75 2.08-2.41 4.21-4.77 6.35-7.13 4.83-5.36 9.6-10.8 14.3-16.3 1.03-1.21 2.06-2.41 3.09-3.62 0.779-0.913 0.779-0.913 1.57-1.84 3.03-3.54 6.1-7.02 9.24-10.5 3.85-4.24 7.45-8.64 11.1-13.1 3.61-4.37 7.44-8.54 11.3-12.7 7.67-8.6 15.1-17.4 22.4-26.4 4.33-5.33 8.84-10.5 13.4-15.7 0.537-0.614 1.07-1.23 1.63-1.86 0.482-0.548 0.964-1.1 1.46-1.66 1.26-1.44 1.26-1.44 2.16-3.43h2c0.365-0.828 0.365-0.828 0.738-1.67 1.53-2.82 3.4-5.11 5.45-7.58 0.808-0.975 1.62-1.95 2.45-2.95 2.49-2.94 5.02-5.84 7.57-8.73 2.04-2.36 4.01-4.77 5.98-7.2 6.61-8.13 13.5-16.1 20.4-23.9 6.49-7.39 12.8-14.9 19-22.6 3.98-4.9 8.17-9.54 12.5-14.2 2-2.05 2-2.05 2.97-4.21h2c0.268-0.598 0.536-1.2 0.812-1.81 1.17-2.16 2.38-3.55 4.19-5.19-2.66-7.98-14.9-14.2-22.1-17.9-26.5-12.4-57.3-12.2-86-13.5-2.13-0.0928-4.26-0.188-6.4-0.283-22-0.98-44-1.78-66-2.43-1.28-0.0384-2.57-0.0769-3.89-0.116-6.95-0.205-13.9-0.398-20.9-0.58-3.78-0.0996-7.57-0.2-11.4-0.303-24.9-0.676-49.8-1.05-74.8-1.07-2.74-0.00335-5.48-0.00821-8.21-0.0135-12.9-0.0245-25.9-0.0338-38.8-0.036-3.12-6.89e-4 -6.25-0.00196-9.37-0.00336-59.6-0.0245-119 0.369-179 1.63-0.8 0.0169-1.6 0.0338-2.42 0.0511-21.4 0.454-42.8 0.957-64.3 1.48-5.77 0.141-11.5 0.277-17.3 0.414-2.07 0.049-4.13 0.098-6.2 0.147-2.94 0.0697-5.88 0.139-8.82 0.209-9.03 0.214-18.1 0.431-27.1 0.675-61.1 1.63-122 1.84-183 1.83-6.95 3.04e-4 -13.9 0.0085-20.8 0.0207-66.1 0.113-132-0.201-198-3.96-2.31-0.13-4.62-0.257-6.93-0.382-27.4-1.49-54.7-3.35-81.9-5.87-1.12-0.102-2.24-0.205-3.4-0.31-33.8-3.09-67.5-6.73-101-10.8-2.12-0.256-4.24-0.511-6.36-0.767-2.58-0.31-5.15-0.625-7.73-0.942-20.5-2.48-39.4-3.02-59.9 0.397-6.25 1.03-12.1 1.64-18.4 1.42-0.938-2.06-0.938-2.06-1-5 5.82-10.1 22.4-15.3 32.9-18.3 13.1-3.08 26.6-3.93 40.1-3.88 1.67 0.00374 1.67 0.00374 3.38 0.00756 12.1 0.0732 24.2 0.599 36.2 1.18 4.13 0.2 8.27 0.391 12.4 0.581 8.84 0.407 17.7 0.825 26.5 1.24 23.2 1.1 46.4 2.17 69.6 3.12 0.673 0.0279 1.35 0.0558 2.04 0.0845 51 2.11 102 2.2 153 2.12 7.51-0.0116 15-0.0157 22.5-0.0153 65.9 0.00337 132-0.642 198-2.53 3.53-0.1 7.05-0.199 10.6-0.298 28-0.781 56-1.61 83.9-2.66 17.3-0.654 34.7-1.19 52-1.7 0.706-0.0207 1.41-0.0414 2.14-0.0627 5.7-0.167 11.4-0.334 17.1-0.5 11.6-0.34 23.3-0.697 34.9-1.06 10.8-0.339 21.6-0.67 32.4-0.995 1.38-0.0417 2.77-0.0834 4.15-0.125 1.03-0.0311 1.03-0.0311 2.09-0.0629 4.94-0.149 9.88-0.303 14.8-0.458 38.3-1.2 76.6-1.96 115-2.36 0.987-0.0104 1.97-0.0208 2.99-0.0315 41.7-0.436 83.3-0.515 125-0.031z" fill="#000002"/>
</svg>
