<?xml version="1.0" encoding="UTF-8"?>
<svg version="1.1" viewBox="0 0 1600 1600" width="1280" height="1280" xmlns="http://www.w3.org/2000/svg">
<path transform="translate(1095 42.7)" d="m0 0c0.976 0.663 0.976 0.663 1.97 1.34 0.908 0.557 1.82 1.11 2.75 1.69 5.72 5.87 8.49 12.2 10.2 20.2 0.169 0.745 0.338 1.49 0.512 2.26 1.54 6.87 2.98 13.8 4.38 20.7 0.438 2.17 0.879 4.34 1.32 6.5 0.633 3.11 1.27 6.22 1.9 9.33 7.71 37.9 15.6 75.8 24.6 113 2.14 8.98 4.23 18 6.29 27 15.5 67.8 31.6 136 48.7 203 1.72 6.81 3.38 13.6 5 20.5 0.611 2.55 1.22 5.1 1.84 7.65 0.533 2.24 1.05 4.49 1.56 6.74 0.314 1.31 0.628 2.61 0.944 3.92 0.255 1.1 0.511 2.2 0.774 3.33 1.97 4.98 5.9 7.92 10.2 11 0.734 0.529 1.47 1.06 2.22 1.6 0.77 0.547 1.54 1.09 2.33 1.66 0.805 0.577 1.61 1.15 2.44 1.75 5.21 3.71 10.5 7.29 15.8 10.8 4.81 3.25 9.49 6.67 14.2 10.1 5.1 3.7 10.2 7.37 15.4 11 0.686 0.483 1.37 0.967 2.08 1.47 3.87 2.73 7.75 5.44 11.6 8.14 37.6 26.2 37.6 26.2 40.6 42.6 0.184 1.04 0.368 2.07 0.558 3.14 0.201 1.1 0.403 2.19 0.61 3.32 0.652 3.56 1.29 7.13 1.93 10.7 0.451 2.48 0.903 4.95 1.36 7.43 2.58 14.2 5.1 28.4 7.58 42.6 5.43 31 11.4 61.8 17.6 92.6 2.21 10.9 4.37 21.9 6.48 32.9 3.16 16.4 6.46 32.7 9.79 49.1 0.826 4.06 1.65 8.12 2.48 12.2 1.01 4.96 2.02 9.92 3.02 14.9 1.97 9.71 3.94 19.4 5.9 29.1 6.29 31.2 12.8 62.3 19.3 93.4 3.79 18 7.59 36.1 11.3 54.1 3.87 19.1 7.84 38.1 11.8 57.2 0.152 0.731 0.305 1.46 0.462 2.22 0.9 4.32 1.8 8.63 2.7 13 0.464 2.22 0.927 4.44 1.39 6.67 1.58 7.57 3.16 15.1 4.75 22.7 5.83 27.8 11.5 55.7 17.1 83.6 0.844 4.22 1.69 8.43 2.54 12.6 4.6 22.8 9.08 45.7 13.2 68.6 0.256 1.44 0.256 1.44 0.517 2.9 0.479 2.7 0.955 5.41 1.43 8.11 0.208 1.18 0.208 1.18 0.42 2.38 3.06 17.6 3.06 17.6-2.36 25.6-6.52 7.96-14.8 12.5-24.5 15.6-1.01 0.329-2.03 0.658-3.07 0.997-16.5 5.2-33.3 9.3-50 13.6-2.97 0.757-5.93 1.52-8.89 2.28-13.7 3.51-27.4 7-41.1 10.5-0.805 0.204-1.61 0.408-2.44 0.618-73.8 18.7-148 35.6-223 51.4-0.862 0.183-1.72 0.367-2.61 0.556-66.6 14.2-133 27.1-200 39.4-1.24 0.23-1.24 0.23-2.51 0.464-19.8 3.66-39.6 7.17-59.5 10.5-1.37 0.233-1.37 0.233-2.78 0.471-55.3 9.37-111 18.7-166 26.9-3.75 0.555-7.49 1.11-11.2 1.67-37.7 5.62-75.4 11.1-113 16.3-0.697 0.0957-1.39 0.191-2.11 0.29-48 6.6-96.2 12.7-144 18.6-8.54 1.05-17.1 2.12-25.6 3.19-6.15 0.774-12.3 1.54-18.5 2.29-3.62 0.445-7.24 0.894-10.9 1.35-49.8 6.33-49.8 6.33-66.2-4.69-14.9-11.7-19.4-28.3-23.6-45.9-0.384-1.57-0.769-3.15-1.16-4.72-3.1-12.7-6.04-25.5-8.96-38.3-5.01-21.9-10.3-43.7-15.6-65.5-0.309-1.28-0.618-2.56-0.937-3.88-8.97-37.1-8.97-37.1-18-74.3-20.8-84.2-40.7-169-58.5-254-0.183-0.876-0.367-1.75-0.556-2.65-0.804-3.85-1.6-7.7-2.39-11.5-3.12-15.2-7.04-30.2-11.1-45.1-9.44-34.5-19.1-69.9-20.4-106l-0.125-2.73c-0.626-25.9 7.59-47 21.1-68.6 4.17-6.72 7.71-13.7 11.1-20.8 1.23-2.54 2.51-5.06 3.78-7.58 4.11-8.14 8.05-16.4 12-24.6 2.62-5.51 5.3-11 8.04-16.4 2.78-5.53 5.52-11.1 8.21-16.6 0.504-1.04 0.504-1.04 1.02-2.1 1.41-2.91 2.82-5.82 4.22-8.74 3.83-7.93 7.67-15.8 11.7-23.7 0.612-1.19 1.22-2.39 1.84-3.58 1.13-2.18 2.26-4.36 3.41-6.53 0.749-1.46 0.749-1.46 1.51-2.94 0.436-0.83 0.873-1.66 1.32-2.51 2.59-7.37-0.143-14.8-2.01-22.1-0.478-1.9-0.956-3.79-1.43-5.69-0.514-2.03-1.03-4.06-1.55-6.09-1.1-4.29-2.18-8.58-3.27-12.9-1.32-5.24-2.65-10.5-3.98-15.7-2.32-9.13-4.61-18.3-6.9-27.4-0.163-0.653-0.326-1.31-0.494-1.98-0.82-3.28-1.64-6.57-2.46-9.85-1.49-5.99-2.99-12-4.49-18-0.501-2-1-4.01-1.5-6.01-2.14-8.56-4.28-17.1-6.43-25.7-1.48-5.9-2.96-11.8-4.44-17.7-0.163-0.652-0.327-1.3-0.495-1.98-4.06-16.2-8.09-32.4-12.1-48.6-0.187-0.76-0.374-1.52-0.567-2.3-1.52-6.18-3.04-12.4-4.56-18.5-5.42-22.1-10.9-44.1-16.5-66.1-27.9-109-27.9-109-14.7-134 1.21-2 2.49-3.92 3.84-5.83 0.696-0.984 0.696-0.984 1.41-1.99 1.49-2.04 3.03-4.03 4.59-6.01 0.477-0.66 0.954-1.32 1.45-2 5.19-6.68 12.2-10.2 19.6-14l1.82-0.968c41-21.8 86.4-33.1 132-39.7 1.96-0.285 3.92-0.58 5.89-0.876 52.1-7.72 106-8.18 158-10 50.7-1.64 50.7-1.64 101-5.27 0.928-0.0853 1.86-0.171 2.81-0.258 16.4-1.51 32.8-3.33 49.1-5.87 1.29-0.198 2.58-0.396 3.92-0.6 41.2-6.38 80.6-17.8 120-32.4 79.2-29.7 162-48.9 244-67.5 14.7-3.31 29.3-6.7 44-10.1 2.8-0.648 5.61-1.29 8.41-1.94 2-0.462 4-0.925 6.01-1.39 2.53-0.585 5.07-1.17 7.6-1.75 5.16-1.19 10.3-2.39 15.5-3.65 0.778-0.189 1.56-0.378 2.36-0.573 1.94-0.474 3.87-0.957 5.81-1.44 9.5-1.87 19-2.17 27.5 2.97zm-26.1 32.3c-1.06 0.24-2.12 0.48-3.21 0.727-1.75 0.409-1.75 0.409-3.54 0.827-1.86 0.424-1.86 0.424-3.75 0.857-3.43 0.784-6.87 1.58-10.3 2.38-3.65 0.846-7.31 1.68-11 2.52-7.17 1.65-14.3 3.3-21.5 4.96-6.07 1.41-12.1 2.81-18.2 4.2-9.87 2.27-19.7 4.55-29.6 6.83-2.58 0.596-5.16 1.19-7.74 1.79-109 25-109 25-214 60.2-52.1 20.1-106 32.8-162 38.8-0.764 0.0817-1.53 0.163-2.32 0.247-46.3 4.9-92.8 6.68-139 8.25-66.8 2.24-66.8 2.24-133 8.5-1.27 0.156-2.54 0.312-3.85 0.472-72.6 8.56-72.6 8.56-136 41.5-0.224 5 0.314 9.58 1.22 14.5 0.13 0.718 0.261 1.44 0.395 2.18 0.433 2.37 0.874 4.75 1.32 7.12 0.309 1.69 0.618 3.37 0.926 5.06 0.827 4.51 1.66 9.02 2.5 13.5 0.698 3.77 1.39 7.53 2.09 11.3 2.17 11.8 4.36 23.6 6.56 35.3 0.196 1.05 0.196 1.05 0.396 2.12 7.6 40.7 15.9 81.3 24.2 122 0.381 1.86 0.762 3.72 1.14 5.57 17.7 86.3 37.3 172 64.4 278 2.12 8.25 4.23 16.5 6.34 24.8 0.481 1.88 0.962 3.77 1.44 5.65 4.12 16.1 8.18 32.3 12.2 48.4 0.283 1.13 0.565 2.26 0.856 3.42 0.802 3.2 1.6 6.4 2.4 9.61 0.354 1.41 0.354 1.41 0.715 2.85 1.39 5.57 2.68 11.1 3.9 16.7 9.37 2.66 18.8 5.23 28.2 7.59 44.3 11.1 88.1 23.9 132 37.7 1.95 0.619 3.91 1.24 5.86 1.85 5.93 1.87 11.8 3.77 17.8 5.69 2.7 0.872 5.39 1.74 8.09 2.61 24.3 7.81 48.5 15.9 72.6 24.4 7.47 2.64 15 5.24 22.4 7.84 28.9 10.1 57.6 20.4 86.3 31.2 7.46 2.81 14.9 5.57 22.4 8.32 8.54 3.14 17.1 6.31 25.6 9.49 0.94 0.35 1.88 0.699 2.85 1.06 12.3 4.56 24.5 9.15 36.7 13.8 11.2 4.27 22.5 8.49 33.7 12.7 2.19 0.821 4.37 1.64 6.56 2.46 3.08 1.16 6.16 2.31 9.24 3.47 0.927 0.348 1.85 0.697 2.81 1.06 13.3 5.35 13.3 5.35 27.1 3.38 5.56-3.16 10.1-7.92 14.7-12.3 2.05-1.94 4.16-3.82 6.27-5.69 5.02-4.5 9.93-9.1 14.8-13.7 2.86-2.69 5.74-5.3 8.81-7.76 1.26-1.09 1.26-1.09 2.55-2.2v-2c0.586-0.259 1.17-0.518 1.77-0.784 2.39-1.31 3.94-2.71 5.83-4.66 0.673-0.684 1.35-1.37 2.04-2.07 0.694-0.715 1.39-1.43 2.1-2.17 4.6-4.72 9.26-9.25 14.3-13.5 3.49-3.1 6.73-6.44 9.99-9.77 1.33-1.36 2.66-2.71 4-4.06 0.578-0.589 1.15-1.18 1.75-1.79 1.88-1.8 3.79-3.48 5.76-5.17 5.07-4.43 9.81-9.16 14.6-13.9 0.985-0.983 1.97-1.97 2.95-2.95 2.65-2.65 5.3-5.3 7.95-7.95 2.79-2.79 5.57-5.57 8.36-8.36 4.68-4.68 9.36-9.36 14-14 5.39-5.4 10.8-10.8 16.2-16.2 4.65-4.65 9.3-9.29 13.9-13.9 2.77-2.77 5.54-5.54 8.31-8.3 2.61-2.6 5.21-5.21 7.81-7.81 1.4-1.4 2.8-2.8 4.2-4.2 4.4-4.42 8.68-8.89 12.7-13.6 2.27-2.61 4.71-5.01 7.18-7.43 1.03-1.01 2.05-2.03 3.08-3.04 1.59-1.56 3.18-3.12 4.77-4.68 1.56-1.53 3.11-3.06 4.66-4.59 0.919-0.902 1.84-1.8 2.78-2.73 2.22-1.96 2.22-1.96 2-4.21h2c1.4-1.38 1.4-1.38 2.88-3.25 3.81-4.52 7.96-8.62 12.2-12.7 1.34-1.31 2.63-2.67 3.91-4.04v-2h2c1.43-1.42 1.43-1.42 2.94-3.31 3.47-4.09 7.19-7.85 11-11.6 3.32-3.29 6.42-6.7 9.45-10.2 1.64-1.86 3.34-3.59 5.11-5.33 4.3-4.23 8.2-8.78 12.1-13.4 3-3.54 6.08-6.87 9.4-10.1 4.8-4.71 9.47-9.46 13.9-14.6 2.98-3.38 6.06-6.65 9.14-9.93 4.31-4.59 8.57-9.21 12.7-14 1.19-1.35 2.48-2.63 3.77-3.89 1.79-1.49 1.79-1.49 1.56-3.62h2c1.5-1.45 1.5-1.45 3.06-3.38 2.77-3.25 5.57-6.46 8.44-9.62 3.37-3.73 6.7-7.5 9.99-11.3 1.51-1.69 1.51-1.69 3.11-3.02 1.59-1.57 1.59-1.57 1.58-3.72-0.883-6.86-2.39-13.5-4.14-20.1-0.304-1.18-0.609-2.37-0.922-3.59-0.662-2.57-1.33-5.15-1.99-7.72-1.65-6.35-3.28-12.7-4.9-19.1-0.382-1.49-0.765-2.99-1.15-4.48-4.37-17.1-8.61-34.2-12.8-51.3-0.371-1.51-0.741-3.01-1.11-4.52-9.06-36.8-18-73.6-27-110-0.766-3.15-1.53-6.29-2.3-9.44-20.1-82.5-39.7-165-69.6-300-0.406-1.9-0.814-3.8-1.22-5.71-3.57-16.7-6.92-33.4-10.1-50.2-3.42-1.14-4.64-0.833-8.1-0.0381zm153 472c0.581 5.2 1.41 10.2 2.66 15.3 0.247 1.01 0.247 1.01 0.498 2.05 0.538 2.21 1.08 4.41 1.63 6.62 0.378 1.55 0.755 3.09 1.13 4.64 0.989 4.05 1.98 8.1 2.98 12.2 1.59 6.49 3.18 13 4.77 19.5 0.553 2.26 1.11 4.52 1.66 6.78 0.34 1.39 0.681 2.78 1.02 4.17 0.297 1.21 0.594 2.42 0.899 3.66 0.646 2.73 1.23 5.45 1.76 8.2 4.3-0.465 6.06-2.91 8.81-6.06 0.442-0.501 0.883-1 1.34-1.52 1.29-1.47 2.57-2.94 3.85-4.42 0.601-0.677 1.2-1.35 1.82-2.05 4.12-4.64 8.11-9.4 12.1-14.1 3.64-4.31 7.33-8.58 11.1-12.8-3.86-4.07-7.99-7.42-12.5-10.8-0.708-0.527-1.42-1.05-2.14-1.6-5.77-4.27-11.6-8.36-17.6-12.4-3.62-2.49-7.21-5.02-10.8-7.55-0.719-0.504-1.44-1.01-2.18-1.53-2.98-2.1-5.88-4.2-8.7-6.52-1.94-1.85-1.94-1.85-4.12-1.64zm72 78c-5.62 5.38-10.7 11-15.6 17-2.71 3.26-5.55 6.36-8.45 9.45-3.61 3.85-7.08 7.74-10.4 11.9-4.83 6.02-10.1 11.6-15.4 17.2-2.93 3.11-5.78 6.29-8.57 9.54-2.91 3.34-5.93 6.56-8.94 9.81-1.93 1.91-1.93 1.91-1.72 4.1h-2c-1.43 1.38-1.43 1.38-2.94 3.25-7.9 9.28-16.3 18.1-24.7 27-3.67 3.89-7.23 7.85-10.7 11.9-2.4 2.74-4.87 5.41-7.34 8.08-1.04 1.13-2.09 2.26-3.13 3.38-0.526 0.568-1.05 1.14-1.59 1.72-2.55 2.75-5.1 5.51-7.65 8.27-0.494 0.535-0.989 1.07-1.5 1.62-2.46 2.67-4.92 5.34-7.36 8.02-4.65 5.11-9.35 10.1-14.3 15-1.73 1.76-3.33 3.58-4.93 5.46-3.43 4-7.14 7.67-10.9 11.4-4.27 4.22-8.4 8.46-12.3 13.1-3.08 3.46-6.45 6.63-9.79 9.84-2.17 1.87-2.17 1.87-1.94 4.1h-2c-1.5 1.48-1.5 1.48-3.05 3.43-4.11 4.83-8.55 9.25-13.1 13.7-6.03 5.85-6.03 5.85-11.6 12.1-2.27 2.77-4.72 5.25-7.26 7.76-1.36 1.36-2.72 2.71-4.08 4.07-0.768 0.764-1.54 1.53-2.33 2.32-3.47 3.46-6.94 6.92-10.4 10.4-1.83 1.82-3.66 3.65-5.49 5.47-2.65 2.64-5.3 5.28-7.94 7.92-0.817 0.812-1.63 1.62-2.47 2.46-3.65 3.65-7.18 7.24-10.3 11.4 5.02 4.6 10.1 9.11 15.4 13.4 4.55 3.68 8.86 7.55 13.1 11.5 3.21 2.97 6.5 5.78 9.92 8.52 4.18 3.37 8.15 6.89 12.1 10.6 4.81 4.5 9.75 8.73 14.9 12.9 2.61 2.14 5.12 4.37 7.61 6.64 4.22 3.85 8.59 7.47 13 11.1 3.3 2.71 6.55 5.47 9.79 8.25 0.587 0.504 1.17 1.01 1.78 1.53 2.41 2.07 4.81 4.15 7.22 6.22 5.83 5.02 11.7 10 17.6 14.9 6.35 5.15 12.5 10.5 18.7 15.9 7.14 6.21 14.3 12.4 21.7 18.3 4.38 3.55 8.56 7.28 12.7 11.1 3.42 3.05 6.98 5.92 10.5 8.8 5.13 4.21 10.1 8.56 15.2 12.9 2.93 2.52 5.86 5.03 8.8 7.55 1.17 1 2.34 2 3.5 3 2.32 1.99 4.64 3.97 6.96 5.96 6.66 5.7 13.3 11.4 19.9 17.2 3.68 3.2 7.38 6.37 11.1 9.53 4.81 4.1 9.56 8.24 14.2 12.5 3.5 3.21 7.06 6.27 10.8 9.25 5.13 4.14 9.96 8.53 14.8 13 2.88 2.66 5.82 5.25 8.79 7.82 3.22 2.82 6.39 5.7 9.56 8.56 2.09 1.87 4.19 3.72 6.3 5.55 3.97 3.45 7.83 7.01 11.7 10.6 3.43 3.15 6.89 6.24 10.4 9.29 3.33 2.92 6.57 5.94 9.81 8.95 2.15 2.01 2.15 2.01 5.2 2.82v2c1.28 1.33 1.28 1.33 3.06 2.75 4.06 3.46 7.98 7.04 11.9 10.7 0.634 0.593 1.27 1.19 1.92 1.8 3.55 3.32 7.09 6.66 10.6 10 0.745 0.708 1.49 1.42 2.26 2.14 1.43 1.36 2.86 2.73 4.29 4.1 4.43 4.2 9.04 7.93 14 11.5-0.602-8.1-2.04-15.9-3.63-23.9-0.271-1.37-0.543-2.75-0.813-4.12-0.733-3.71-1.47-7.43-2.21-11.1-0.628-3.15-1.25-6.3-1.88-9.45-11.2-56.5-22.8-113-34.5-169-0.222-1.07-0.444-2.14-0.673-3.25-4.06-19.6-8.14-39.2-12.3-58.7-6.45-30.6-12.8-61.3-18.9-91.9-4.63-23-9.34-45.9-14.1-68.8-5-23.9-9.91-47.7-14.4-71.7-1.39-7.45-2.82-14.9-4.25-22.3-1.27-6.57-2.53-13.1-3.8-19.7-0.21-1.09-0.21-1.09-0.425-2.21-3.08-16-6.11-32-8.9-48-0.21-1.21-0.42-2.41-0.636-3.66-0.977-5.63-1.94-11.3-2.88-16.9-0.336-1.97-0.672-3.94-1.01-5.9-0.218-1.34-0.218-1.34-0.44-2.71-0.356-2.06-0.802-4.11-1.27-6.15-0.66-0.33-1.32-0.66-2-1zm-1064 118c-9.84 20.4-9.84 20.4-19.6 40.8-0.438 0.916-0.876 1.83-1.33 2.78-1.84 3.86-3.68 7.71-5.52 11.6-1.53 3.2-3.06 6.4-4.59 9.59-0.743 1.55-0.743 1.55-1.5 3.14-3.73 7.77-7.56 15.5-11.5 23.2-0.584 1.15-0.584 1.15-1.18 2.32-0.343 0.668-0.685 1.34-1.04 2.03-0.861 1.67-0.861 1.67-0.728 3.67 13 2.85 26 5.35 39.1 7.77 8.64 1.6 17.3 3.26 25.9 5.11 4.07 0.848 7.85 1.29 12 1.12-1.56-8.39-3.58-16.7-5.63-24.9-0.359-1.46-0.718-2.91-1.08-4.37-0.945-3.83-1.89-7.66-2.84-11.5-0.75-3.03-1.5-6.06-2.25-9.1-2.02-8.2-4.05-16.4-6.09-24.6-0.757-3.05-1.51-6.1-2.27-9.16-0.934-3.77-1.87-7.54-2.81-11.3-0.352-1.42-0.703-2.83-1.05-4.25-0.481-1.95-0.966-3.89-1.45-5.84-0.273-1.1-0.547-2.2-0.829-3.34-0.605-2.55-0.605-2.55-1.71-4.6h-2zm-51 133c2.97 13.4 6.55 26.6 10.2 39.8 8.13 29.7 15.8 59.5 23.2 89.4 2.01 8.15 4.04 16.3 6.1 24.4 6.88 27.3 13.5 54.6 19.8 82 0.814 3.54 1.63 7.08 2.45 10.6 17.6 76.3 33.9 153 68.3 346h4c0.366-0.767 0.732-1.53 1.11-2.32 4-8.2 8.37-16.1 12.9-24 4.21-7.3 8.32-14.7 12.4-22 5.19-9.38 10.4-18.7 15.7-28.1 4.02-7.09 8-14.2 12-21.3 4.64-8.31 9.34-16.6 14.1-24.8 5.22-8.93 10.1-18.1 14.9-27.2 5.82-10.9 11.7-21.8 17.9-32.5 4.27-7.51 8.36-15.1 12.4-22.7 5.08-9.55 10.3-19 15.7-28.4 4.06-7.14 7.97-14.3 11.8-21.6 4.4-8.23 8.88-16.4 13.5-24.5 6.47-11.4 12.7-22.9 18.8-34.4 9.72-18.1 19.7-36 30-53.9 0.531-0.928 1.06-1.86 1.61-2.81 0.992-1.73 1.99-3.46 2.98-5.19 5.1-8.9 9.95-17.9 14.8-26.9 5.27-9.76 10.6-19.5 16.1-29.1 1.42-2.51 2.84-5.02 4.26-7.53 0.537-0.952 1.07-1.9 1.63-2.89 1.11-1.96 2.21-3.92 3.32-5.88 2.81-4.98 5.65-9.94 8.54-14.9 0.835-1.43 0.835-1.43 1.69-2.9 1.06-1.82 2.13-3.64 3.21-5.45 0.712-1.22 0.712-1.22 1.44-2.47 0.63-1.07 0.63-1.07 1.27-2.16 1.17-2.26 1.17-2.26 0.895-6.02-15-5.69-30.1-11.1-45.3-16.1-6.48-2.13-12.9-4.29-19.4-6.54-39.2-13.7-78.9-26.1-119-37.6-1.72-0.496-3.45-0.992-5.17-1.49-60.2-17.4-121-32.3-183-43.9-1.17-0.221-2.33-0.442-3.54-0.67-3.29-0.619-6.57-1.23-9.86-1.84-0.98-0.184-1.96-0.368-2.97-0.557-0.901-0.165-1.8-0.33-2.73-0.501-1.17-0.217-1.17-0.217-2.37-0.438-2.45-0.399-2.45-0.399-6.16-0.306zm814 68.3c-1.03 1.04-2.05 2.08-3.07 3.14-0.544 0.55-1.09 1.1-1.65 1.67-1.74 1.76-3.47 3.54-5.2 5.31-1.73 1.76-3.46 3.53-5.2 5.29-1.08 1.1-2.16 2.2-3.23 3.3-2.27 2.31-4.37 4.23-7.07 6.04v2c-0.54 0.214-1.08 0.427-1.64 0.648-3.21 1.84-5.6 4.36-8.16 6.99-0.829 0.836-0.829 0.836-1.67 1.69-1.76 1.78-3.52 3.57-5.28 5.36-2.3 2.34-4.61 4.68-6.92 7.01-0.557 0.563-1.11 1.13-1.69 1.71-3.49 3.51-7.08 6.83-10.9 10-3.26 2.85-6.25 5.97-9.28 9.06-4.45 4.5-8.91 8.88-13.7 13-2.64 2.31-5.07 4.82-7.5 7.35-1.95 1.89-3.93 3.67-5.98 5.45-3.57 3.1-7 6.31-10.4 9.59-16.1 15.5-31.9 27.8-55.4 27.3-18.1-1.37-35.7-10.5-52.4-16.9-13.2-5.11-26.4-10.1-39.7-14.9-12.3-4.51-24.5-9.02-36.7-13.7-13.2-5.03-26.4-9.89-39.6-14.8-1.03-0.378-2.06-0.757-3.12-1.15-5-1.84-10-3.67-15-5.5-4.07-1.49-8.13-2.99-12.2-4.5-1.51-0.559-1.51-0.559-3.05-1.13-1.92-0.709-3.83-1.42-5.74-2.14-0.855-0.315-1.71-0.631-2.59-0.956-0.748-0.279-1.5-0.558-2.27-0.846-2.37-0.777-2.37-0.777-6.09-0.595-0.874 1.69-0.874 1.69-1.77 3.42-4.94 9.5-10.1 18.9-15.4 28.2-4.96 8.62-9.78 17.3-14.6 26-2.7 4.89-5.42 9.75-8.32 14.5-3.15 5.2-6.05 10.5-8.93 15.9-1.04 1.92-2.08 3.84-3.11 5.76-0.521 0.964-1.04 1.93-1.58 2.92-4.49 8.31-9 16.6-13.7 24.8-3.79 6.7-7.5 13.4-11.2 20.2-0.342 0.621-0.684 1.24-1.04 1.88-1.76 3.2-3.53 6.4-5.29 9.6-3.04 5.51-6.08 11-9.12 16.5-1.66 3.02-3.33 6.03-4.99 9.05-0.667 1.21-1.33 2.42-2 3.62l-4 7.25c-0.33 0.598-0.66 1.2-1 1.81-0.667 1.21-1.33 2.42-2 3.63-1.66 3.02-3.33 6.03-4.99 9.05-3.03 5.49-6.05 11-9.08 16.5-1.7 3.08-3.41 6.16-5.11 9.25-0.501 0.906-0.501 0.906-1.01 1.83-4.54 8.22-9.03 16.5-13.5 24.7-4.18 7.76-8.45 15.5-12.8 23.1-6.13 10.8-12 21.7-17.9 32.6-7.33 13.6-14.8 27.1-22.4 40.6-3.89 6.94-7.74 13.9-11.5 20.9-4.4 8.09-8.86 16.1-13.4 24.1-2.67 4.74-5.32 9.48-7.98 14.2-0.596 1.06-1.19 2.13-1.81 3.23-3.02 5.4-6.04 10.8-9.06 16.2-3.48 6.22-6.96 12.4-10.4 18.6-0.55 0.982-1.1 1.96-1.67 2.98-1.63 2.91-3.26 5.81-4.89 8.71-0.523 0.929-1.05 1.86-1.58 2.82-2.8 4.94-5.64 9.85-8.56 14.7-0.604 1.01-1.21 2.02-1.83 3.06-1.16 1.94-2.33 3.87-3.51 5.8-0.519 0.864-1.04 1.73-1.57 2.62-0.462 0.76-0.924 1.52-1.4 2.3-1.21 2.07-1.21 2.07-0.987 5 94.4-8.7 188-19.6 686-97.6 1.89-0.356 3.78-0.711 5.67-1.07 70.3-13.2 140-27.8 210-43.3 2.26-0.5 4.53-1 6.79-1.5 32.1-7.1 64.1-14.5 96-22 2.3-0.538 4.59-1.08 6.89-1.61 10.3-2.41 20.6-4.83 30.8-7.25 3.39-0.8 6.79-1.6 10.2-2.39 4.02-0.944 8.05-1.89 12.1-2.84 1.48-0.35 2.96-0.699 4.45-1.05 9.04-2.12 17.9-4.5 26.7-7.36v-3c-0.713 0.107-1.43 0.214-2.16 0.324-6.36 0.796-10.3 0.911-15.8-2.32-1.68-1.31-3.36-2.64-5-4h-2c-0.33-0.99-0.66-1.98-1-3-1.56-1.58-1.56-1.58-3.5-3.12-3.15-2.67-6.11-5.43-9-8.38-3.46-3.51-7.03-6.79-10.8-9.99-1.43-1.25-2.77-2.59-4.1-3.95-1.49-1.79-1.49-1.79-3.62-1.56v-2c-1.55-1.57-1.55-1.57-3.56-3.19-2.76-2.35-5.4-4.72-7.94-7.31-2.94-2.99-6.02-5.75-9.2-8.48-2.81-2.46-5.56-4.99-8.3-7.52-3.9-3.59-7.84-7.13-11.9-10.6-1.77-1.57-3.51-3.16-5.23-4.77-0.814-0.758-0.814-0.758-1.64-1.53-1.08-1.01-2.16-2.02-3.23-3.04-2.58-2.72-2.58-2.72-6.04-3.55-0.33-0.99-0.66-1.98-1-3-1.51-1.35-3.08-2.63-4.69-3.88-4.64-3.69-9-7.56-13.3-11.6-4.06-3.82-8.14-7.51-12.5-11-4.36-3.49-8.44-7.18-12.5-11-4.98-4.69-10.1-9.11-15.4-13.4-2.6-2.13-5.09-4.34-7.58-6.61-3.4-3.1-6.86-6.05-10.4-8.94-3.8-3.08-7.46-6.25-11.1-9.56-4.37-4.02-8.87-7.8-13.5-11.5-3.51-2.89-6.95-5.86-10.4-8.85-5.22-4.55-10.5-9.06-15.8-13.5-4.01-3.38-8-6.8-12-10.2-4.91-4.23-9.89-8.35-14.9-12.4-2.33-1.93-4.62-3.89-6.89-5.89-0.681-0.598-1.36-1.2-2.06-1.81-1.35-1.19-2.7-2.38-4.04-3.58-3.02-3.08-3.02-3.08-6.95-4.16v-2c-1.77-1.63-1.77-1.63-4.12-3.38-4.3-3.36-8.49-6.81-12.6-10.4-0.587-0.506-1.17-1.01-1.78-1.53-1.21-1.04-2.42-2.09-3.63-3.13-2.46-2.12-4.93-4.24-7.41-6.35-4.23-3.62-8.45-7.24-12.6-10.9-2.9-2.55-5.87-5-8.88-7.44-5.81-4.73-11.5-9.63-17.1-14.5-3.62-3.15-7.25-6.27-10.9-9.39-0.856-0.733-0.856-0.733-1.73-1.48-2.95-2.52-5.89-5.04-8.85-7.56-5.24-4.47-10.5-8.95-15.6-13.6-3.31-3.01-6.7-5.88-10.2-8.69-4.01-3.24-7.85-6.61-11.6-10.1-10.5-11.8-10.5-11.8-22.6-12.2z" fill="#000002"/>
<path transform="translate(1071 445)" d="m0 0c4.13 2.88 7.07 6.01 8.69 10.9 0.725 5.83 0.619 11.2-2.9 16.1-5.1 4.69-11.8 7.23-18.1 9.93-0.795 0.341-1.59 0.681-2.41 1.03-5.81 2.46-11.7 4.75-17.6 6.97-0.681 0.26-1.36 0.52-2.06 0.788-9.92 3.73-20.1 6.44-30.4 9.08-1.41 0.364-2.82 0.731-4.23 1.1-34.6 9.07-70.4 13.2-106 17.9-21.7 2.92-43.4 5.91-65 9.79-0.793 0.142-1.59 0.284-2.4 0.43-47.8 8.6-89.4 27.5-131 52.1-9 5.32-18 10.6-27.1 15.8-0.693 0.404-1.39 0.809-2.1 1.23-16.6 9.65-35.3 16.8-53.9 21.8-0.756 0.204-1.51 0.409-2.29 0.619-29.9 7.93-60.2 10.5-91 10.6-0.857 0.00536-1.71 0.0107-2.6 0.0162-31.8 0.151-63.6-2.76-95.3-5.46-18.2-1.55-36.3-2.98-54.6-3.96-1.13-0.0614-1.13-0.0614-2.29-0.124-11.5-0.615-22.9-1.02-34.4-1.22-6.33-0.122-11.2-0.514-16.1-4.96-3.8-4.91-5.94-7.97-5.77-14.4 0.931-5.24 4.23-9.11 8.07-12.6 4.1-2.77 7.33-2.75 12.2-2.8 0.82-0.0097 1.64-0.0194 2.49-0.0294 2.76-0.0255 5.52-0.0377 8.29-0.0448 0.962-0.00262 1.92-0.00524 2.92-0.00793 26.2-0.00751 52.3 2.16 78.5 4.32 2.29 0.189 4.59 0.377 6.88 0.566 17 1.4 17 1.4 25.3 2.13 5.27 0.457 10.5 0.894 15.8 1.31 1.07 0.0848 1.07 0.0848 2.16 0.171 14.5 1.1 29 1.02 43.6 1.01 2.86-8.14e-5 5.72 0.00691 8.57 0.0205 15.3 0.0718 30.5 0.139 45.7-2.21 1.03-0.151 2.06-0.303 3.12-0.459 2.62-0.409 5.22-0.865 7.82-1.35 0.919-0.172 1.84-0.344 2.79-0.521 34.9-6.72 64.7-21.4 94.9-39.7 70.8-42.6 141-57 222-68.5 76.2-10.5 76.2-10.5 149-35.4 7.24-3.22 13.7-4.58 21.4-1.97z" fill="#000002"/>
<path transform="translate(1031,270)" d="m0 0c4.09 4.06 6.17 7.36 6.38 13.1-0.0847 5.87-1.28 9.63-5.38 13.9-5.54 3.24-11.6 4.88-17.9 6.22-0.843 0.19-1.69 0.38-2.55 0.575-2.78 0.624-5.57 1.24-8.36 1.85-1.99 0.443-3.98 0.887-5.96 1.33-5.33 1.19-10.7 2.37-16 3.54-5.56 1.23-11.1 2.47-16.7 3.71-12.2 2.71-24.4 5.41-36.5 8.1-7.96 1.76-15.9 3.53-23.9 5.29-0.79 0.175-1.58 0.35-2.39 0.53-4.57 1.01-9.15 2.03-13.7 3.04-1.48 0.329-2.97 0.658-4.45 0.988-69.2 15.3-138 31.9-207 49.7-57.2 14.8-57.2 14.8-85.9 21.1-0.77 0.168-1.54 0.337-2.33 0.51-49.4 10.8-99.7 19.7-150 19.7-2.98 0.0022-5.97 0.0205-8.95 0.0393-28.6 0.0852-28.6 0.0852-35.4-6.22-4.06-5.37-5.55-9.25-5-16 1.66-5.25 4.08-8.73 8.68-11.9 4.87-2.24 10.3-1.58 15.5-1.42 1.98 0.0281 3.95 0.0561 5.93 0.0823 2.09 0.0312 4.18 0.0737 6.26 0.119 7.2 0.15 14.4 0.184 21.6 0.209 1.06 0.00426 1.06 0.00426 2.15 0.0086 16.1 0.0504 31.8-1.16 47.8-3.73 2.2-0.352 4.4-0.688 6.6-1.02 46.3-7.08 91.8-18.7 137-29.6 8.78-2.1 17.6-4.19 26.4-6.26 25-5.92 50.1-11.9 75-18.1 12.9-3.19 25.8-6.2 38.7-9.17 12.8-2.95 25.7-5.94 38.5-8.97 1.71-0.405 3.43-0.811 5.14-1.22 2.6-0.615 5.21-1.23 7.81-1.85 29.4-6.95 58.8-13.9 88.3-20.4 2.27-0.502 4.54-1 6.81-1.51 1.13-0.25 2.26-0.501 3.43-0.758 9.2-2.04 18.4-4.15 27.6-6.28 4.89-1.13 9.78-2.25 14.7-3.37 3.97-0.911 7.94-1.83 11.9-2.76 3.71-0.869 7.43-1.72 11.1-2.57 1.36-0.313 2.73-0.631 4.09-0.954 22.6-5.35 22.6-5.35 30.8 0.432z" fill="#000002"/>
<path transform="translate(1035 598)" d="m0 0c14.3 12.4 22.5 28.9 24.3 47.7 2.53 40.9-17.3 77.7-43.6 107-5.11 5.71-10.4 11-16.3 15.9-1.06 0.93-2.12 1.86-3.17 2.8-1.15 1.01-2.3 2.01-3.45 3.02-0.539 0.481-1.08 0.962-1.63 1.46-4.51 3.89-8.19 5.42-14 6.14-5-0.549-8.55-2.57-13-4.91-13.3-6.74-27.2-11.7-41.2-16.7-20.6-7.41-38.8-16.4-54.5-31.8-0.744-0.708-1.49-1.42-2.25-2.14-10.1-10.3-17-26.1-17.2-40.5 0.0102-0.867 0.0203-1.73 0.0308-2.63 0.00757-0.916 0.0151-1.83 0.0229-2.77 0.386-16 7.37-30.4 18.4-41.9 14.2-12.4 28.4-17.1 47-16 5.09 0.665 10 1.73 15 3 0.401-0.811 0.802-1.62 1.21-2.46 8.91-17.3 21.3-30.3 39.8-37.5 23-6.68 45.7-2.5 64.6 12zm-69 32.9c-5.63 8.48-5.67 15.8-4.63 25.6 0.487 6.14-0.376 10.3-3.9 15.5-4.57 4.29-9.28 4.3-15.3 4.2-3.68-0.275-5.74-0.989-8.72-3.2-0.946-1.25-1.86-2.52-2.75-3.81-3.94-5.67-9.76-9.02-16.2-11.2-7.37-0.714-13.7-0.739-20.1 3.39-6.11 5.1-10.1 11.9-11.2 19.8-0.499 9.16 3.21 16.2 9.19 22.9 15.2 16.2 37.3 22.9 57.8 29.9 8.64 2.97 17 6.32 25.3 10 0.92-0.777 0.92-0.777 1.86-1.57 1.46-1.23 2.93-2.47 4.39-3.7 0.577-0.57 1.15-1.14 1.75-1.73v-2c0.99-0.33 1.98-0.66 3-1v-2c0.99-0.33 1.98-0.66 3-1 3.24-3.47 6.08-7.27 9-11 0.75-0.924 1.5-1.85 2.27-2.8 9.76-12.4 16.5-26.1 20.7-41.2 0.318-1.04 0.637-2.08 0.965-3.16 3.12-11.4 4.6-26-0.84-36.9-0.557-0.957-0.557-0.957-1.12-1.93-0.577-1.07-1.15-2.14-1.75-3.25-6.02-7.36-14.2-12-23.6-13.2-11.9-0.476-21.8 3.81-29.1 13.3z" fill="#000002"/>
<path transform="translate(1434 298)" d="m0 0c4.46 2.52 7.07 5.68 8.81 10.5 0.859 5.36 0.718 9.54-1.69 14.4-4.03 4.46-8.21 7.19-13.7 9.7-0.604 0.28-1.21 0.561-1.83 0.85-1.96 0.907-3.92 1.8-5.88 2.7-1.37 0.633-2.75 1.27-4.12 1.9-8.74 4.03-17.5 8.01-26.3 11.9-4.51 2.02-9 4.06-13.5 6.12-26 11.9-26 11.9-35.2 15.8-1.2 0.514-2.4 1.03-3.63 1.56-4.99 1.55-8.9 1.42-13.9-0.121-4.7-2.61-6.94-5.52-9.75-10.1-1.24-5.48-0.739-10.7 1.94-15.6 2.97-3.79 5.8-5.39 10.1-7.48 0.747-0.381 1.49-0.761 2.26-1.15 8.23-4.14 16.7-7.86 25.1-11.5 3.02-1.32 6.04-2.65 9.06-3.97 0.744-0.327 1.49-0.653 2.25-0.989 5.84-2.58 11.6-5.27 17.4-8.01 6.85-3.24 13.7-6.38 20.6-9.5 2.06-0.93 4.12-1.86 6.18-2.8 1.33-0.598 2.65-1.2 3.98-1.79 1.17-0.53 2.35-1.06 3.56-1.61 6.22-2.71 11.8-3.48 18.1-0.772z" fill="#000002"/>
<path transform="translate(1322,189)" d="m0 0c3.74 3.11 7.73 7.15 8.21 12.2 0.141 7.46-1.22 13.8-3.36 20.9-0.328 1.13-0.657 2.27-0.995 3.44-1.06 3.66-2.15 7.32-3.23 11-0.738 2.52-1.47 5.04-2.21 7.56-1.1 3.77-2.2 7.55-3.31 11.3-2.13 7.25-4.21 14.5-6.22 21.8-0.448 1.62-0.896 3.24-1.34 4.85-0.608 2.2-1.21 4.39-1.8 6.59-4.65 17.3-4.65 17.3-11.3 22.3-5.07 2.21-10.1 3.16-15.5 1.38-4.84-2.17-7.36-4.53-9.91-9.32-2.2-6.6-0.84-12.8 1-19.3 0.22-0.805 0.44-1.61 0.667-2.44 0.764-2.77 1.55-5.54 2.33-8.31 0.292-1.04 0.585-2.08 0.886-3.15 1.98-7.04 3.98-14.1 6-21.1 1.05-3.67 2.1-7.34 3.15-11 1.67-5.84 3.35-11.7 5.04-17.5 0.608-2.1 1.21-4.21 1.81-6.32 0.795-2.78 1.6-5.57 2.41-8.35 0.226-0.803 0.453-1.61 0.686-2.43 1.71-5.82 3.88-10.6 9.03-14.1 5.84-2.92 12-2.34 18 0z" fill="#000002"/>
<path transform="translate(1386 435)" d="m0 0c1.29 0.0587 2.58 0.117 3.91 0.178 3.03 0.14 6.07 0.297 9.1 0.464 5.26 0.287 10.5 0.542 15.8 0.796 4.95 0.241 9.91 0.492 14.9 0.746 2.48 0.127 4.96 0.252 7.44 0.376 3.53 0.179 7.07 0.368 10.6 0.561 1.06 0.0522 2.12 0.104 3.21 0.158 17.2 0.976 17.2 0.976 23.6 7.66 3.31 4.85 3.73 9.31 3 15-1.79 5.38-5.33 8.92-10 12-10.3 3.39-24.2 0.797-35 0.23-0.781-0.0404-1.56-0.0808-2.37-0.122-4.12-0.213-8.24-0.431-12.4-0.652-4.23-0.226-8.45-0.437-12.7-0.645-3.28-0.164-6.57-0.339-9.85-0.518-1.56-0.0827-3.12-0.161-4.68-0.235-19.4-0.932-19.4-0.932-24.6-5.4-4.1-4.59-6.05-9.28-5.87-15.5 1.16-5.77 4.84-9.95 9.38-13.5 5.26-2.78 10.8-2 16.6-1.67z" fill="#000002"/>
</svg>
